<svg width="300" height="252" viewBox="0 0 300 252" fill="none" xmlns="http://www.w3.org/2000/svg">
<path d="M118 1.39312C97.4999 6.39312 80.7999 21.4931 73.9999 41.4931C71.3999 48.8931 71.4999 50.4931 74.1999 45.3931C82.3999 29.7931 97.3999 17.7931 113.5 13.8931C124.7 11.1931 140.3 12.9931 150.5 18.0931C166.3 26.0931 175.7 39.1931 179.7 58.9931C180.5 63.1931 181.6 67.2931 182 67.9931C182.6 68.8931 184.6 67.7931 189.3 63.5931C205.7 49.1931 219.2 44.2931 235.5 46.8931C261.3 50.7931 279.6 74.1931 277.8 100.693C275.9 128.093 259.8 131.593 196 118.293C159.2 110.593 147.5 108.793 131.5 108.193C115.6 107.593 105.5 108.693 98.6999 111.693L94.7999 113.393H109.2C126.2 113.493 135.5 115.393 165.5 124.993C215.3 140.793 229.9 144.493 247 145.593C275.2 147.293 292.8 135.893 298.5 112.193C301.1 101.293 300.2 83.0931 296.6 72.3931C290.1 53.4931 275.3 37.4931 257.5 29.9931C239.1 22.2931 216.4 23.0931 198.7 31.9931C193.4 34.6931 192.5 34.8931 191.6 33.5931C178.2 14.4931 167.5 6.39312 149.6 1.69312C141.3 -0.406876 126.2 -0.606876 118 1.39312Z" fill="white"/>
<path d="M34.5 60.2936C22.3 64.1936 13.4 72.2936 7.1 85.0936C1.6 96.1936 0 103.294 0 115.394C0.1 135.494 5.8 149.094 20.4 163.394C28.2 171.094 40.2 177.894 49.8 180.194L55 181.394V216.594C55 235.994 55.2 251.894 55.5 251.894C55.8 251.894 60.8 248.994 66.6 245.394C118.5 213.294 180.4 199.094 221.3 209.894C225.3 210.994 229.6 212.094 231 212.394C234.5 213.294 225 207.194 217.5 203.794C192.6 192.494 157.3 190.694 122.1 198.894C112.1 201.294 95 206.794 85 210.894L78 213.794V201.094C78 194.094 77.7 181.994 77.3 174.194L76.7 160.094H67.1C50.9 160.294 39.7 155.794 28.9 144.994C15.5 131.594 10.4 114.594 14.5 96.9936C17.6 83.7936 25.5 73.2936 36 68.0936C41.1 65.5936 42.4 65.3936 54 65.3936C66.6 65.4936 69.8 66.1936 87 72.5936C88 72.9936 88.2 72.7936 87.5 72.0936C85.5 69.8936 69.9 62.8936 62.8 60.8936C54.4 58.5936 40.8 58.2936 34.5 60.2936Z" fill="white"/>
</svg>
